<?xml version="1.0"?><svg version="1.2" baseProfile="tiny-ps" viewBox="0 0 512 512" xmlns="http://www.w3.org/2000/svg" xmlns:xlink="http://www.w3.org/1999/xlink"><title>Ayush Kumar</title><g><g fill="#fff" transform="matrix(.1 0 0 -.1 0 512)"><path d="M0 2560V0h5120v5120H0V2560z"/></g><g fill="#dedede" transform="matrix(.1 0 0 -.1 0 512)"><path d="M1550 3943c-14-2-54-13-89-24-352-111-693-504-941-1084-28-66-57-125-63-131-7-6-61-23-121-37-107-27-269-85-313-113l-23-14v-270l22 5c30 6 308 43 308 41 0-1-20-81-44-177-25-97-55-235-67-305l-23-129-1-190v-190l30-60 30-60 45-23 45-23 59 5 60 6 110 53 111 54 33 37c17 20 39 53 48 74l16 37 9 230c9 248 20 378 46 578l17 129 231-7c126-4 298-10 381-14l152-6-30-95c-45-148-96-346-113-444l-15-89v-87c0-106 13-177 44-245l23-51 37-36 36-35 66-22 66-22h187l68 17c85 21 190 68 282 128l70 45 82 78c97 92 155 171 206 279l38 79v85l-1 85-14 30-15 30-28 3-28 3-162-158c-218-214-308-283-370-283h-24l-17 19-17 18-10 64-10 64 6 55c10 84 20 117 117 375 123 327 173 476 213 637l34 137 12 103 12 103-6 105-6 105-26 90-26 90-36 65-37 65-60 61-61 61-68 32-69 33-91 19-92 19-105-1c-58-1-116-4-130-6zm158-519l52-26 24-41 24-42 13-63 12-63-6-92-6-92-36-140c-19-77-39-142-43-145s-183-3-399 0l-391 5-8 7-7 7 33 93c67 193 145 330 253 444l65 69 58 35 57 34 66 18 66 17h61l60 1 52-26zm3152 494c-19-5-40-15-47-21-7-7-62-133-123-282-61-148-149-346-195-440l-83-170-69-105c-38-58-92-133-120-166l-52-61-58 19-58 20-80-5-80-5-49-22-48-23-19-31-19-31v-38c0-21 6-52 14-70l13-33 43-37 43-36 60-23 61-24 13-49c11-45 30-172 79-530 47-346 119-482 281-531l48-15h81l81-1 69 17c137 34 297 123 412 229l62 58v440l-123-118c-68-66-148-136-178-157l-55-38-38-6-37-6-25 14-26 13-24 42c-35 59-66 154-124 375-28 107-66 231-84 275l-32 81 92 62 93 61 111 106c171 165 304 343 404 541l46 93v628l-22 6c-13 3-63 5-113 5l-90-1-35-10zm-1255-119c-410-39-724-132-869-260l-45-40-26-52-25-53-11-60-11-61 12-43 12-43 27-28 28-28 21 6c11 2 48 29 83 58 149 126 299 180 557 199l74 5-5-12c-197-459-404-1193-468-1657l-11-85-1-155v-155l12-60 11-60 24-24 24-24 50-5 49-4 88 11 87 12 54 20c30 11 67 32 83 45l30 25 15 42 15 42 5 120c15 320 81 622 299 1365 87 298 137 498 137 549 0 11 11 37 25 57 32 47 55 122 62 201l6 62-13 31-13 31-38 20-38 19-113-1c-62-1-153-5-203-10z"/></g><g fill="#b5b5b5" transform="matrix(.1 0 0 -.1 0 512)"><path d="M1541 3940c-314-67-620-346-869-795-49-89-177-362-204-436l-6-15-83-18c-106-23-247-70-322-107l-57-29v-267l123 18c67 9 142 19 166 22l43 5-5-21c-3-12-21-85-40-162-47-184-63-264-83-415l-16-125 5-130 5-130 16-46 17-46 31-31 30-32 39-10 40-11 52 10 52 9 95 45c52 24 109 56 127 71l32 27 27 55 27 56 8 240c8 228 25 438 50 612l12 79 231-7c127-3 300-9 384-13l153-6-6-16c-18-45-107-369-126-456l-22-100-1-140-1-140 23-67 23-66 39-45 39-44 53-23 53-23 101-5 102-5 75 17 76 17 91 44c117 58 187 106 283 195l77 72 59 88 59 88 23 59 22 58 1 80v80l-14 25c-16 30-29 40-53 40h-18l-157-154c-170-168-245-232-307-265l-40-21h-25c-15 0-34 6-43 13l-17 12-10 54c-5 29-10 75-10 101v47l20 77c11 42 69 208 129 369 124 333 171 479 208 657l26 125 1 150 1 150-14 60c-20 90-58 182-109 258l-45 69-51 40c-60 48-148 91-231 113l-60 16-130 4-130 4-44-9zm189-524l42-27 26-57 25-56 5-101 4-100-20-100c-12-55-31-136-44-180l-23-80-405 4c-223 2-406 4-407 5-1 0 14 46 32 100 68 198 166 368 275 475l58 57 59 32c33 17 84 38 114 47l54 15 82-3 81-3 42-28zm3146 504l-40-7-21-25-21-24-97-237c-166-403-232-541-345-716-58-91-100-148-150-206l-32-35-62 21-63 21-72-5-71-5-44-20c-24-11-54-31-67-45l-24-26-4-48-4-48 19-35 19-35 48-37 48-36 53-17 52-16 21-112c11-62 32-199 46-306 34-262 52-362 81-449 28-84 44-112 93-165l36-39 50-26 50-27h250l55 19c131 45 278 132 383 226l57 52v441l-135-132-135-131-52-30-53-30h-71l-22 16-22 15-30 59c-30 60-79 216-125 400-26 103-57 199-88 271l-16 36 99 67 98 66 98 93c158 149 298 337 403 540l51 97v620l-26 10-25 10-77-1c-42-1-95-5-116-9zm-1206-117c-395-30-701-109-880-228l-67-45-36-52-36-53-11-43c-6-24-11-70-11-103l-1-59 19-32c10-17 25-35 34-41l16-10 24 6c13 3 53 31 89 61l65 56 68 35 67 36 96 25 96 24 110 10c61 6 112 9 114 7s-19-59-47-128c-174-431-377-1184-419-1556l-12-102 4-173 3-173 20-40 20-40 40-13 40-14 101 11 101 10 49 17c27 8 66 27 86 41l37 25 17 36 18 37 8 135c20 335 87 646 282 1310 96 329 139 494 152 585l7 50 19 27c10 15 28 53 39 85l20 58 6 67 6 67-17 26c-9 14-31 35-49 45l-32 20-105-2c-58-1-125-3-150-5z"/></g><g fill="#818181" transform="matrix(.1 0 0 -.1 0 512)"><path d="M1526 3934c-104-23-178-56-290-131l-100-67-79-76c-199-189-361-438-528-814l-67-150-123-32c-116-30-243-75-310-110l-29-15v-259h18c10 0 63 6 118 14 54 8 122 17 151 21l51 7-24-83c-64-220-111-484-120-674l-7-130 12-69c14-78 37-130 75-166l27-24 63-4 64-4 39 12c21 7 80 33 131 58l92 45 30 37c17 21 37 58 46 82l16 43 8 242c9 229 28 466 50 598 5 33 10 63 10 68v7h123c133 0 640-20 645-25 2-2-12-54-32-116-55-180-84-295-106-422-22-134-25-202-9-297l10-65 26-58 26-58 40-34 40-34 51-18 51-18h240l70 24c215 72 416 226 541 412l44 67 26 68 26 69-4 87-3 87-23 23-22 23-34-19-34-18-47-54c-68-79-280-270-349-316l-59-38h-77l-15 24-16 24-6 89-5 88 16 66c8 37 64 199 125 360 167 449 218 628 242 847l11 103-11 108-10 107-25 80-25 79-38 64-38 65-52 52-53 51-72 36-73 36-65 16-65 15-120 5-120 5-69-16zm180-503l41-19 26-33 25-34 16-54 16-55v-185l-15-73c-9-40-27-117-42-171l-26-97-406 6c-223 4-407 8-409 9-7 5 75 220 114 300l45 90 64 87 64 87 52 41c74 58 126 87 189 104l55 15h75l75 1 41-19zm3174 489l-44-10-18-17-17-18-111-268c-199-485-317-702-493-911l-25-29-48 19-49 19-75-1h-75l-51-17-51-18-28-29-27-28-5-44-4-43 23-45 23-45 48-32c27-18 68-38 90-45 23-6 45-14 50-18 12-10 44-189 67-371 55-438 88-561 176-659l36-39 56-28 57-28h230l70 23c129 43 285 136 393 235l42 40v435l-106-104c-110-107-187-171-239-198l-30-16h-84l-29 36-30 36-31 82c-17 44-55 174-85 287-46 174-67 238-113 346l-5 12 69 44c247 159 483 428 633 725l50 99v612l-12 7c-7 5-51 9-98 10l-85 3-45-9zm-1175-117c-262-21-460-53-620-98l-90-26-110-53-110-54-51-54-51-54-22-59-23-60 4-72 3-72 21-28 21-28 25-3 25-3 74 61 74 61 90 44 90 44 95 20c52 11 137 23 189 27l94 7-6-19c-3-10-24-64-47-118-168-409-377-1186-421-1565l-11-104 4-166 5-166 16-37 15-36 23-12 22-13 121 5 121 6 58 22c66 25 111 60 134 103l15 30 9 141c19 335 86 644 279 1299 98 335 133 464 151 572l12 70 28 50 28 50 16 70 17 70-5 43-5 43-18 21c-11 11-33 27-51 34l-32 14-83-2c-46-1-101-3-123-5z"/></g><g fill="#454545" transform="matrix(.1 0 0 -.1 0 512)"><path d="M1569 3939c-295-43-605-306-849-719-71-119-171-321-225-456l-29-71-76-18c-119-28-229-64-312-102l-78-36v-260l33 6c93 15 298 39 301 36 3-2-9-51-25-108-60-216-104-459-115-646l-7-110 12-75 12-75 22-45 22-45 35-23 35-24 70 5 70 4 100 47 100 47 33 32c19 18 43 50 54 72l21 40 8 145c28 516 36 608 64 768l6 32h162c178-1 597-17 603-23 3-2-20-89-50-193s-65-241-77-304l-23-115v-220l22-71 21-70 29-40 29-39 49-27 49-26 59-11c33-6 85-11 115-11h56l82 20c104 25 194 65 298 135l82 54 69 68c84 82 152 176 196 269l33 69 3 85 3 85-18 35-18 35-18 3-17 4-153-149c-185-181-263-247-334-281l-54-27-27 16-27 15-12 34-12 35v77l-1 77 11 53c6 29 68 203 136 387l124 334 34 121c46 170 66 276 74 386l6 95-7 91-6 91-18 64c-9 35-32 96-51 135l-34 71-52 58-51 58-52 33-52 34-74 24-73 24-90 11c-101 12-145 12-226 0zm128-500l32-10 35-39 35-39 15-53c8-29 17-79 21-110l6-58-11-77c-11-77-36-185-67-292l-15-54-407 8c-223 4-407 8-409 10s11 45 28 97c84 252 219 455 363 549 118 77 261 103 374 68zm3218 481c-79-10-93-17-111-52-9-17-67-153-129-303-63-150-145-337-184-414l-69-141-75-113c-40-61-97-140-126-174l-52-62-44 20-45 20h-149l-38-10c-21-6-53-20-71-31l-33-20-15-37-16-36 7-36c10-50 30-81 80-119l42-32 54-18 54-19 16-65c10-36 27-134 38-219 12-85 31-219 42-299s31-188 45-240l25-95 33-55 34-55 47-36 47-36 41-13c23-7 70-15 103-18l61-5 69 12c145 26 305 108 449 230l75 64v430l-97-94c-176-169-258-228-320-229h-21l-32 26-31 27-24 48c-26 49-69 189-129 415-19 73-49 169-67 213-18 45-30 83-28 85 2 1 36 23 74 48 244 155 480 430 634 736l41 82v608l-17 6c-29 11-126 15-188 6zm-1240-121c-347-26-636-92-818-187l-68-35-49-44-49-44-27-54-26-55-6-65-5-65 18-45 17-45 18-10c32-17 42-12 125 56l80 65 70 34 70 35 78 20c88 22 217 40 289 40h47l-26-57c-179-406-408-1244-454-1668l-12-110 6-146 5-146 15-36 15-35 27-18 26-17 107 6 107 5 63 20 63 20 35 27 36 28 13 31 14 32 10 151c25 351 73 575 271 1258 122 421 139 488 160 612l12 72 13 11c20 17 53 110 65 184l10 64-12 38-13 38-40 23-40 23-65-2c-36 0-114-4-175-9z"/></g><g fill="#010101" transform="matrix(.1 0 0 -.1 0 512)"><path d="M1598 3938l-76-7-78-26c-237-80-488-309-689-630-68-109-176-321-240-470-26-60-48-111-49-112s-62-18-136-37c-130-33-260-81-307-112l-23-14v-252l20 5c37 9 309 41 314 36 2-2-13-73-35-157-21-83-50-213-64-287l-25-135-10-129-9-129 9-83 10-83 27-55 28-55 35-19 35-18 60 4 61 4 99 44 100 44 46 45 47 45 15 55 15 55 6 190c7 219 21 408 45 579l16 121 350-2c193-1 369-5 392-8l42-6-10-27c-25-65-110-381-129-479l-21-108v-220l20-66 21-65 30-47 31-46 52-25 52-26 80-11 79-11 80 12 80 12 61 23c143 54 250 122 367 234l79 75 55 81 54 82 25 67 25 66v58c0 31-5 74-10 94l-11 38-17 9-18 9-19-10c-11-6-97-86-190-177l-170-166-64-43c-35-23-75-45-89-49l-25-6-26 9-26 9-12 35-12 35v95l-1 95 19 65c10 36 69 198 130 361 114 305 164 464 203 642l22 102 1 175v175l-23 80-23 79-37 70-37 71-60 61-60 61-65 31c-82 40-167 61-278 70l-87 7-77-7zm108-501c16-8 44-30 61-47l31-31 18-57 19-57-1-110v-110l-27-110c-15-60-35-132-44-159l-16-49-404 5c-222 3-407 8-410 12-10 9 56 195 102 288 24 48 66 121 95 161l51 75 62 60 63 60 62 31c35 17 88 38 120 46l57 15 65-4 65-3 31-16zm3146 472l-34-10-24-55c-13-31-65-155-115-277s-128-298-174-392l-83-170-80-120c-44-66-100-143-126-172l-46-51-50 19-50 19h-136l-51-15c-28-8-61-23-72-33l-22-17-13-39-13-39 8-35c10-48 36-81 94-120l48-32 43-11 43-11 15-68c19-82 37-199 71-460l26-195 24-92c13-51 35-114 49-140l24-48 44-42 43-42 50-22 49-22h96l95-1 64 17c137 37 296 127 410 233l61 56v421l-112-110c-62-60-141-130-176-156l-63-46-35-7-34-6-29 12-30 12-25 36c-37 54-70 148-126 363-54 204-82 293-111 351l-19 36 99 66 99 66 106 101c170 162 300 338 405 545l51 99v603l-16 6c-9 3-61 6-117 5l-102-1-33-9zm-1117-110c-444-22-831-124-992-263l-42-37-31-62-30-62-6-60-6-60 14-39 13-39 26-20 27-19 20 11c11 6 46 33 78 61l59 50 75 39 76 40 71 20c87 24 241 44 304 39l47-3-50-120c-182-442-387-1219-429-1627l-11-113 6-120c4-66 11-138 16-160l9-40 26-22 26-23h67c123 0 257 31 315 72l27 20 20 38 20 39v58c0 91 27 324 56 483 35 195 113 500 224 875 108 365 134 465 154 578l14 84 21 34c12 19 30 63 41 98l20 63v107l-11 24c-12 26-51 52-89 59-14 2-92 1-175-3z"/></g></g></svg>